<svg id="d-630078150135267f" width="100%" xmlns="http://www.w3.org/2000/svg" class="statediagram" style="max-width: 1780.9036865234375px;" viewBox="4 4 1780.9036865234375 1400" role="graphics-document document" aria-roledescription="stateDiagram"><style>#d-630078150135267f{font-family:var(--font-sans);font-size:15px;fill:var(--diagram-text);}@keyframes edge-animation-frame{from{stroke-dashoffset:0;}}@keyframes dash{to{stroke-dashoffset:0;}}#d-630078150135267f .edge-animation-slow{stroke-dasharray:9,5!important;stroke-dashoffset:900;animation:dash 50s linear infinite;stroke-linecap:round;}#d-630078150135267f .edge-animation-fast{stroke-dasharray:9,5!important;stroke-dashoffset:900;animation:dash 20s linear infinite;stroke-linecap:round;}#d-630078150135267f .error-icon{fill:var(--diagram-cluster);}#d-630078150135267f .error-text{fill:var(--diagram-text);stroke:var(--diagram-text);}#d-630078150135267f .edge-thickness-normal{stroke-width:1px;}#d-630078150135267f .edge-thickness-thick{stroke-width:3.5px;}#d-630078150135267f .edge-pattern-solid{stroke-dasharray:0;}#d-630078150135267f .edge-thickness-invisible{stroke-width:0;fill:none;}#d-630078150135267f .edge-pattern-dashed{stroke-dasharray:3;}#d-630078150135267f .edge-pattern-dotted{stroke-dasharray:2;}#d-630078150135267f .marker{fill:var(--diagram-line);stroke:var(--diagram-line);}#d-630078150135267f .marker.cross{stroke:var(--diagram-line);}#d-630078150135267f svg{font-family:var(--font-sans);font-size:15px;}#d-630078150135267f p{margin:0;}#d-630078150135267f defs [id$="-barbEnd"]{fill:var(--diagram-line);stroke:var(--diagram-line);}#d-630078150135267f g.stateGroup text{fill:var(--diagram-node-border);stroke:none;font-size:10px;}#d-630078150135267f g.stateGroup text{fill:var(--diagram-text);stroke:none;font-size:10px;}#d-630078150135267f g.stateGroup .state-title{font-weight:bolder;fill:var(--diagram-text);}#d-630078150135267f g.stateGroup rect{fill:var(--diagram-node);stroke:var(--diagram-node-border);}#d-630078150135267f g.stateGroup line{stroke:var(--diagram-line);stroke-width:1;}#d-630078150135267f .transition{stroke:var(--diagram-line);stroke-width:1;fill:none;}#d-630078150135267f .stateGroup .composit{fill:var(--diagram-background);border-bottom:1px;}#d-630078150135267f .stateGroup .alt-composit{fill:#e0e0e0;border-bottom:1px;}#d-630078150135267f .state-note{stroke:var(--diagram-note-border);fill:var(--diagram-note);}#d-630078150135267f .state-note text{fill:var(--diagram-text);stroke:none;font-size:10px;}#d-630078150135267f .stateLabel .box{stroke:none;stroke-width:0;fill:var(--diagram-node);opacity:0.5;}#d-630078150135267f .edgeLabel .label rect{fill:var(--diagram-label-background);opacity:0.5;}#d-630078150135267f .edgeLabel{background-color:var(--diagram-label-background);text-align:center;}#d-630078150135267f .edgeLabel p{background-color:var(--diagram-label-background);}#d-630078150135267f .edgeLabel rect{opacity:0.5;background-color:var(--diagram-label-background);fill:var(--diagram-label-background);}#d-630078150135267f .edgeLabel .label text{fill:var(--diagram-text);}#d-630078150135267f .label div .edgeLabel{color:var(--diagram-text);}#d-630078150135267f .stateLabel text{fill:var(--diagram-text);font-size:10px;font-weight:bold;}#d-630078150135267f .node circle.state-start{fill:var(--diagram-node-border);stroke:var(--diagram-node-border);}#d-630078150135267f .node .fork-join{fill:var(--diagram-node-border);stroke:var(--diagram-node-border);}#d-630078150135267f .node circle.state-end{fill:var(--diagram-node-border);stroke:var(--diagram-background);stroke-width:1.5;}#d-630078150135267f .end-state-inner{fill:var(--diagram-cluster);stroke-width:1.5;}#d-630078150135267f .node rect{fill:var(--diagram-node);stroke:var(--diagram-node-border);stroke-width:1px;}#d-630078150135267f .node polygon{fill:var(--diagram-node);stroke:var(--diagram-node-border);stroke-width:1px;}#d-630078150135267f [id$="-barbEnd"]{fill:var(--diagram-line);}#d-630078150135267f .statediagram-cluster rect{fill:var(--diagram-cluster);stroke:var(--diagram-node-border);stroke-width:1px;}#d-630078150135267f .cluster-label,#d-630078150135267f .nodeLabel{color:var(--diagram-text);}#d-630078150135267f .statediagram-cluster rect.outer{rx:5px;ry:5px;}#d-630078150135267f .statediagram-state .divider{stroke:var(--diagram-node-border);}#d-630078150135267f .statediagram-state .title-state{rx:5px;ry:5px;}#d-630078150135267f .statediagram-cluster.statediagram-cluster .inner{fill:var(--diagram-cluster);}#d-630078150135267f .statediagram-cluster.statediagram-cluster-alt .inner{fill:var(--diagram-cluster);}#d-630078150135267f .statediagram-cluster .inner{rx:0;ry:0;}#d-630078150135267f .statediagram-state rect.basic{rx:5px;ry:5px;}#d-630078150135267f .statediagram-state rect.divider{stroke-dasharray:10,10;fill:var(--diagram-cluster);}#d-630078150135267f .note-edge{stroke-dasharray:5;}#d-630078150135267f .statediagram-note rect{fill:var(--diagram-note);stroke:var(--diagram-note-border);stroke-width:1px;rx:0;ry:0;}#d-630078150135267f .statediagram-note rect{fill:var(--diagram-note);stroke:var(--diagram-note-border);stroke-width:1px;rx:0;ry:0;}#d-630078150135267f .statediagram-note text{fill:var(--diagram-text);}#d-630078150135267f .statediagram-note .nodeLabel{color:var(--diagram-text);}#d-630078150135267f .statediagram .edgeLabel{color:red;}#d-630078150135267f [id$="-dependencyStart"],#d-630078150135267f [id$="-dependencyEnd"]{fill:var(--diagram-line);stroke:var(--diagram-line);stroke-width:1;}#d-630078150135267f .statediagramTitleText{text-anchor:middle;font-size:18px;fill:var(--diagram-text);}#d-630078150135267f [data-look="neo"].statediagram-cluster rect{fill:var(--diagram-node);stroke:var(--diagram-node-border);stroke-width:1;}#d-630078150135267f [data-look="neo"].statediagram-cluster rect.outer{rx:5px;ry:5px;filter:drop-shadow( 1px 2px 2px rgba(185,185,185,1));}#d-630078150135267f .node .neo-node{stroke:var(--diagram-node-border);}#d-630078150135267f [data-look="neo"].node rect,#d-630078150135267f [data-look="neo"].cluster rect,#d-630078150135267f [data-look="neo"].node polygon{stroke:var(--diagram-node-border);filter:drop-shadow( 1px 2px 2px rgba(185,185,185,1));}#d-630078150135267f [data-look="neo"].swimlane.cluster rect{filter:none;}#d-630078150135267f [data-look="neo"].node path{stroke:var(--diagram-node-border);stroke-width:1px;}#d-630078150135267f [data-look="neo"].node .outer-path{filter:drop-shadow( 1px 2px 2px rgba(185,185,185,1));}#d-630078150135267f [data-look="neo"].node .neo-line path{stroke:var(--diagram-node-border);filter:none;}#d-630078150135267f [data-look="neo"].node circle{stroke:var(--diagram-node-border);filter:drop-shadow( 1px 2px 2px rgba(185,185,185,1));}#d-630078150135267f [data-look="neo"].node circle .state-start{fill:#000000;}#d-630078150135267f [data-look="neo"].icon-shape .icon{fill:var(--diagram-node-border);filter:drop-shadow( 1px 2px 2px rgba(185,185,185,1));}#d-630078150135267f [data-look="neo"].icon-shape .icon-neo path{stroke:var(--diagram-node-border);filter:drop-shadow( 1px 2px 2px rgba(185,185,185,1));}#d-630078150135267f :root{--mermaid-font-family:"trebuchet ms",verdana,arial,sans-serif;}</style><g><defs><marker id="d-630078150135267f_stateDiagram-barbEnd" refX="19" refY="7" markerWidth="20" markerHeight="14" markerUnits="strokeWidth" orient="auto"><path d="M 19,7 L11,14 L13,7 L11,0 Z"></path></marker></defs><defs><marker id="d-630078150135267f_stateDiagram-barbEnd-margin" refX="17" refY="7" markerWidth="20" markerHeight="14" markerUnits="userSpaceOnUse" orient="auto"><path d="M 19,7 L11,14 L13,7 L11,0 Z" fill="var(--diagram-line)"></path></marker></defs><g class="root"><g class="clusters"></g><g class="edges edgePaths"><path d="M188.90364583333337,50.5L188.90364583333337,170" id="d-630078150135267f-edge0" class="edge-thickness-normal edge-pattern-solid transition" style="stroke-dasharray: 0 0 119.5 0; stroke-dashoffset: 0;fill:none;;;fill:none" data-edge="true" data-et="edge" data-id="edge0" data-points="W3sieCI6MTg4LjkwMzY0NTgzMzMzMzM3LCJ5Ijo1MC41fSx7IngiOjE4OC45MDM2NDU4MzMzMzMzNywieSI6MTc1LjV9XQ==" data-look="neo" marker-end="url(#d-630078150135267f_stateDiagram-barbEnd-margin)"></path><path d="M159.90364583333337,214L159.90364583333337,226.92893218813452Q159.90364583333337,234 152.8325780214679,234L89.40440114519879,234Q82.33333333333331,234 82.33333333333331,241.07106781186548L82.33333333333331,331.9289321881345Q82.33333333333331,339 89.40440114519879,339L147.9992446881345,339Q155.07031249999997,339 155.07031249999997,346.0710678118655L155.07031249999997,353.5" id="d-630078150135267f-edge1" class="edge-thickness-normal edge-pattern-solid transition" style="stroke-dasharray: 0 0 279.15069580078125 0; stroke-dashoffset: 0;fill:none;;;fill:none" data-edge="true" data-et="edge" data-id="edge1" data-points="W3sieCI6MTU5LjkwMzY0NTgzMzMzMzM3LCJ5IjoyMTR9LHsieCI6MTU5LjkwMzY0NTgzMzMzMzM3LCJ5IjoyMzR9LHsieCI6ODIuMzMzMzMzMzMzMzMzMzEsInkiOjIzNH0seyJ4Ijo4Mi4zMzMzMzMzMzMzMzMzMSwieSI6MzM5fSx7IngiOjE1NS4wNzAzMTI0OTk5OTk5NywieSI6MzM5fSx7IngiOjE1NS4wNzAzMTI0OTk5OTk5NywieSI6MzU5fV0=" data-look="neo" marker-end="url(#d-630078150135267f_stateDiagram-barbEnd-margin)"></path><path d="M193.73697916666663,359L193.73697916666663,346.0710678118655Q193.73697916666663,339 200.8080469785321,339L259.40289052146784,339Q266.4739583333333,339 266.4739583333333,331.9289321881345L266.4739583333333,261.0710678118655Q266.4739583333333,254 259.40289052146784,254L195.97471364519885,254Q188.90364583333337,254 188.90364583333337,246.92893218813452L188.90364583333337,219.5" id="d-630078150135267f-edge2" class="edge-thickness-normal edge-pattern-solid transition" style="stroke-dasharray: 0 0 279.1507568359375 0; stroke-dashoffset: 0;fill:none;;;fill:none" data-edge="true" data-et="edge" data-id="edge2" data-points="W3sieCI6MTkzLjczNjk3OTE2NjY2NjYzLCJ5IjozNTl9LHsieCI6MTkzLjczNjk3OTE2NjY2NjYzLCJ5IjozMzl9LHsieCI6MjY2LjQ3Mzk1ODMzMzMzMzMsInkiOjMzOX0seyJ4IjoyNjYuNDczOTU4MzMzMzMzMywieSI6MjU0fSx7IngiOjE4OC45MDM2NDU4MzMzMzMzNywieSI6MjU0fSx7IngiOjE4OC45MDM2NDU4MzMzMzMzNywieSI6MjE0fV0=" data-look="neo" marker-end="url(#d-630078150135267f_stateDiagram-barbEnd-margin)"></path><path d="M217.90364583333337,214L217.90364583333337,226.92893218813452Q217.90364583333337,234 224.97471364519885,234L464.90289052146784,234Q471.9739583333333,234 471.9739583333333,241.07106781186548L471.9739583333333,353.5" id="d-630078150135267f-edge3" class="edge-thickness-normal edge-pattern-solid transition" style="stroke-dasharray: 0 0 388.2420654296875 0; stroke-dashoffset: 0;fill:none;;;fill:none" data-edge="true" data-et="edge" data-id="edge3" data-points="W3sieCI6MjE3LjkwMzY0NTgzMzMzMzM3LCJ5IjoyMTR9LHsieCI6MjE3LjkwMzY0NTgzMzMzMzM3LCJ5IjoyMzR9LHsieCI6NDcxLjk3Mzk1ODMzMzMzMzMsInkiOjIzNH0seyJ4Ijo0NzEuOTczOTU4MzMzMzMzMywieSI6MzU5fV0=" data-look="neo" marker-end="url(#d-630078150135267f_stateDiagram-barbEnd-margin)"></path><path d="M452.640625,397.5L452.640625,430.4289321881345Q452.640625,437.5 445.5695571881345,437.5L279.3210678118655,437.5Q272.25,437.5 272.25,444.5710678118655L272.25,613.8333333333334" id="d-630078150135267f-edge4" class="edge-thickness-normal edge-pattern-solid transition" style="stroke-dasharray: 0 0 391.3956298828125 0; stroke-dashoffset: 0;fill:none;;;fill:none" data-edge="true" data-et="edge" data-id="edge4" data-points="W3sieCI6NDUyLjY0MDYyNSwieSI6Mzk3LjV9LHsieCI6NDUyLjY0MDYyNSwieSI6NDM3LjV9LHsieCI6MjcyLjI1LCJ5Ijo0MzcuNX0seyJ4IjoyNzIuMjUsInkiOjYxOS4zMzMzMzMzMzMzMzM0fV0=" data-look="neo" marker-end="url(#d-630078150135267f_stateDiagram-barbEnd-margin)"></path><path d="M252.91666666666663,657.8333333333334L252.91666666666663,687.9289321881345Q252.91666666666663,695 245.84559885480115,695L239.07106781186548,695Q232,695 232,702.0710678118655L232,726.25L232,842.5L232,1031.75L232,1124.75L232,1171.4289321881345Q232,1178.5 239.07106781186548,1178.5L290.4289321881345,1178.5Q297.5,1178.5 297.5,1185.5710678118655L297.5,1213" id="d-630078150135267f-edge5" class="edge-thickness-normal edge-pattern-solid transition" style="stroke-dasharray: 0 0 630.9267578125 0; stroke-dashoffset: 0;fill:none;;;fill:none" data-edge="true" data-et="edge" data-id="edge5" data-points="W3sieCI6MjUyLjkxNjY2NjY2NjY2NjYzLCJ5Ijo2NTcuODMzMzMzMzMzMzMzNH0seyJ4IjoyNTIuOTE2NjY2NjY2NjY2NjMsInkiOjY5NX0seyJ4IjoyMzIsInkiOjY5NX0seyJ4IjoyMzIsInkiOjcyNi4yNX0seyJ4IjoyMzIsInkiOjg0Mi41fSx7IngiOjIzMiwieSI6MTAzMS43NX0seyJ4IjoyMzIsInkiOjExMjQuNzV9LHsieCI6MjMyLCJ5IjoxMTc4LjV9LHsieCI6Mjk3LjUsInkiOjExNzguNX0seyJ4IjoyOTcuNSwieSI6MTIxOC41fV0=" data-look="neo" marker-end="url(#d-630078150135267f_stateDiagram-barbEnd-margin)"></path><path d="M291.5833333333333,657.8333333333334L291.5833333333333,687.9289321881345Q291.5833333333333,695 298.6544011451988,695L341.1867446881345,695Q348.2578125,695 348.2578125,702.0710678118655L348.2578125,770.4289321881345Q348.2578125,777.5 355.3288803118655,777.5L512.2700780214677,777.5Q519.3411458333333,777.5 519.3411458333333,784.5710678118655L519.3411458333333,804.875" id="d-630078150135267f-edge6" class="edge-thickness-normal edge-pattern-solid transition" style="stroke-dasharray: 0 0 364.1429443359375 0; stroke-dashoffset: 0;fill:none;;;fill:none" data-edge="true" data-et="edge" data-id="edge6" data-points="W3sieCI6MjkxLjU4MzMzMzMzMzMzMzMsInkiOjY1Ny44MzMzMzMzMzMzMzM0fSx7IngiOjI5MS41ODMzMzMzMzMzMzMzLCJ5Ijo2OTV9LHsieCI6MzQ4LjI1NzgxMjUsInkiOjY5NX0seyJ4IjozNDguMjU3ODEyNSwieSI6Nzc3LjV9LHsieCI6NTE5LjM0MTE0NTgzMzMzMzMsInkiOjc3Ny41fSx7IngiOjUxOS4zNDExNDU4MzMzMzMzLCJ5Ijo4MTAuMzc1fV0=" data-look="neo" marker-end="url(#d-630078150135267f_stateDiagram-barbEnd-margin)"></path><path d="M268.5,1218.5L268.5,1205.5710678118655Q268.5,1198.5 261.4289321881345,1198.5L119.07106781186548,1198.5Q112,1198.5 112,1191.4289321881345L112,1124.75L112,1031.75L112,950L112,726.25L112,630L112,511.25L112,424.5710678118655Q112,417.5 119.07106781186548,417.5L426.23622385480115,417.5Q433.30729166666663,417.5 433.30729166666663,410.4289321881345L433.30729166666663,403" id="d-630078150135267f-edge7" class="edge-thickness-normal edge-pattern-solid transition" style="stroke-dasharray: 0 0 1282.6507568359375 0; stroke-dashoffset: 0;fill:none;;;fill:none" data-edge="true" data-et="edge" data-id="edge7" data-points="W3sieCI6MjY4LjUsInkiOjEyMTguNX0seyJ4IjoyNjguNSwieSI6MTE5OC41fSx7IngiOjExMiwieSI6MTE5OC41fSx7IngiOjExMiwieSI6MTEyNC43NX0seyJ4IjoxMTIsInkiOjEwMzEuNzV9LHsieCI6MTEyLCJ5Ijo5NTB9LHsieCI6MTEyLCJ5Ijo3MjYuMjV9LHsieCI6MTEyLCJ5Ijo2MzB9LHsieCI6MTEyLCJ5Ijo1MTEuMjV9LHsieCI6MTEyLCJ5Ijo0MTcuNX0seyJ4Ijo0MzMuMzA3MjkxNjY2NjY2NjMsInkiOjQxNy41fSx7IngiOjQzMy4zMDcyOTE2NjY2NjY2MywieSI6Mzk3LjV9XQ==" data-look="neo" marker-end="url(#d-630078150135267f_stateDiagram-barbEnd-margin)"></path><path d="M297.5,1257L297.5,1376.5" id="d-630078150135267f-edge8" class="edge-thickness-normal edge-pattern-solid transition" style="stroke-dasharray: 0 0 119.5 0; stroke-dashoffset: 0;fill:none;;;fill:none" data-edge="true" data-et="edge" data-id="edge8" data-points="W3sieCI6Mjk3LjUsInkiOjEyNTd9LHsieCI6Mjk3LjUsInkiOjEzODJ9XQ==" data-look="neo" marker-end="url(#d-630078150135267f_stateDiagram-barbEnd-margin)"></path><path d="M548.3411458333333,848.875L548.3411458333333,1007" id="d-630078150135267f-edge9" class="edge-thickness-normal edge-pattern-solid transition" style="stroke-dasharray: 0 0 158.125 0; stroke-dashoffset: 0;fill:none;;;fill:none" data-edge="true" data-et="edge" data-id="edge9" data-points="W3sieCI6NTQ4LjM0MTE0NTgzMzMzMzMsInkiOjg0OC44NzV9LHsieCI6NTQ4LjM0MTE0NTgzMzMzMzMsInkiOjEwMTIuNX1d" data-look="neo" marker-end="url(#d-630078150135267f_stateDiagram-barbEnd-margin)"></path><path d="M529.0078125,1051L529.0078125,1063.9289321881345Q529.0078125,1071 521.9367446881345,1071L445.4122136451988,1071Q438.3411458333333,1071 438.3411458333333,1078.0710678118655L438.3411458333333,1171.4289321881345Q438.3411458333333,1178.5 431.27007802146784,1178.5L333.5710678118655,1178.5Q326.5,1178.5 326.5,1185.5710678118655L326.5,1213" id="d-630078150135267f-edge10" class="edge-thickness-normal edge-pattern-solid transition" style="stroke-dasharray: 0 0 353.85125732421875 0; stroke-dashoffset: 0;fill:none;;;fill:none" data-edge="true" data-et="edge" data-id="edge10" data-points="W3sieCI6NTI5LjAwNzgxMjUsInkiOjEwNTF9LHsieCI6NTI5LjAwNzgxMjUsInkiOjEwNzF9LHsieCI6NDM4LjM0MTE0NTgzMzMzMzMsInkiOjEwNzF9LHsieCI6NDM4LjM0MTE0NTgzMzMzMzMsInkiOjExNzguNX0seyJ4IjozMjYuNSwieSI6MTE3OC41fSx7IngiOjMyNi41LCJ5IjoxMjE4LjV9XQ==" data-look="neo" marker-end="url(#d-630078150135267f_stateDiagram-barbEnd-margin)"></path><path d="M567.6744791666666,1051L567.6744791666666,1063.9289321881345Q567.6744791666666,1071 574.745546978532,1071L651.270078021468,1071Q658.3411458333334,1071 658.3411458333334,1078.0710678118655L658.3411458333334,1171.4289321881345Q658.3411458333334,1178.5 665.4122136451988,1178.5L692.0669530214677,1178.5Q699.1380208333333,1178.5 699.1380208333333,1185.5710678118655L699.1380208333333,1213" id="d-630078150135267f-edge11" class="edge-thickness-normal edge-pattern-solid transition" style="stroke-dasharray: 0 0 282.80694580078125 0; stroke-dashoffset: 0;fill:none;;;fill:none" data-edge="true" data-et="edge" data-id="edge11" data-points="W3sieCI6NTY3LjY3NDQ3OTE2NjY2NjYsInkiOjEwNTF9LHsieCI6NTY3LjY3NDQ3OTE2NjY2NjYsInkiOjEwNzF9LHsieCI6NjU4LjM0MTE0NTgzMzMzMzQsInkiOjEwNzF9LHsieCI6NjU4LjM0MTE0NTgzMzMzMzQsInkiOjExNzguNX0seyJ4Ijo2OTkuMTM4MDIwODMzMzMzMywieSI6MTE3OC41fSx7IngiOjY5OS4xMzgwMjA4MzMzMzMzLCJ5IjoxMjE4LjV9XQ==" data-look="neo" marker-end="url(#d-630078150135267f_stateDiagram-barbEnd-margin)"></path><path d="M548.3411458333333,810.375L548.3411458333333,764.5710678118655Q548.3411458333333,757.5 541.2700780214677,757.5L489.0450261451988,757.5Q481.9739583333333,757.5 481.9739583333333,750.4289321881345L481.9739583333333,726.25L481.9739583333333,511.25L481.9739583333333,462.5Q481.9739583333333,457.5 476.9739583333333,457.5L476.9739583333333,457.5Q471.9739583333333,457.5 471.9739583333333,452.5L471.9739583333333,403" id="d-630078150135267f-edge12" class="edge-thickness-normal edge-pattern-solid transition" style="stroke-dasharray: 0 0 474.64630126953125 0; stroke-dashoffset: 0;fill:none;;;fill:none" data-edge="true" data-et="edge" data-id="edge12" data-points="W3sieCI6NTQ4LjM0MTE0NTgzMzMzMzMsInkiOjgxMC4zNzV9LHsieCI6NTQ4LjM0MTE0NTgzMzMzMzMsInkiOjc1Ny41fSx7IngiOjQ4MS45NzM5NTgzMzMzMzMzLCJ5Ijo3NTcuNX0seyJ4Ijo0ODEuOTczOTU4MzMzMzMzMywieSI6NzI2LjI1fSx7IngiOjQ4MS45NzM5NTgzMzMzMzMzLCJ5Ijo1MTEuMjV9LHsieCI6NDgxLjk3Mzk1ODMzMzMzMzMsInkiOjQ1Ny41fSx7IngiOjQ3MS45NzM5NTgzMzMzMzMzLCJ5Ijo0NTcuNX0seyJ4Ijo0NzEuOTczOTU4MzMzMzMzMywieSI6Mzk3LjV9XQ==" data-look="neo" marker-end="url(#d-630078150135267f_stateDiagram-barbEnd-margin)"></path><path d="M737.8046875,1218.5L737.8046875,1185.5710678118655Q737.8046875,1178.5 744.8757553118655,1178.5L796.996640521468,1178.5Q804.0677083333334,1178.5 804.0677083333334,1171.4289321881345L804.0677083333334,1124.75L804.0677083333334,1031.75L804.0677083333334,950L804.0677083333334,726.25L804.0677083333334,630L804.0677083333334,511.25L804.0677083333334,424.5710678118655Q804.0677083333334,417.5 796.996640521468,417.5L517.7116928118655,417.5Q510.640625,417.5 510.640625,410.4289321881345L510.640625,403" id="d-630078150135267f-edge13" class="edge-thickness-normal edge-pattern-solid transition" style="stroke-dasharray: 0 0 1164.53369140625 0; stroke-dashoffset: 0;fill:none;;;fill:none" data-edge="true" data-et="edge" data-id="edge13" data-points="W3sieCI6NzM3LjgwNDY4NzUsInkiOjEyMTguNX0seyJ4Ijo3MzcuODA0Njg3NSwieSI6MTE3OC41fSx7IngiOjgwNC4wNjc3MDgzMzMzMzM0LCJ5IjoxMTc4LjV9LHsieCI6ODA0LjA2NzcwODMzMzMzMzQsInkiOjExMjQuNzV9LHsieCI6ODA0LjA2NzcwODMzMzMzMzQsInkiOjEwMzEuNzV9LHsieCI6ODA0LjA2NzcwODMzMzMzMzQsInkiOjk1MH0seyJ4Ijo4MDQuMDY3NzA4MzMzMzMzNCwieSI6NzI2LjI1fSx7IngiOjgwNC4wNjc3MDgzMzMzMzM0LCJ5Ijo2MzB9LHsieCI6ODA0LjA2NzcwODMzMzMzMzQsInkiOjUxMS4yNX0seyJ4Ijo4MDQuMDY3NzA4MzMzMzMzNCwieSI6NDE3LjV9LHsieCI6NTEwLjY0MDYyNSwieSI6NDE3LjV9LHsieCI6NTEwLjY0MDYyNSwieSI6Mzk3LjV9XQ==" data-look="neo" marker-end="url(#d-630078150135267f_stateDiagram-barbEnd-margin)"></path><path d="M577.3411458333333,810.375L577.3411458333333,764.5710678118655Q577.3411458333333,757.5 584.4122136451988,757.5L686.402890521468,757.5Q693.4739583333334,757.5 693.4739583333334,750.4289321881345L693.4739583333334,726.25L693.4739583333334,511.25L693.4739583333334,444.5710678118655Q693.4739583333334,437.5 686.402890521468,437.5L498.3783594785321,437.5Q491.30729166666663,437.5 491.30729166666663,430.4289321881345L491.30729166666663,403" id="d-630078150135267f-edge14" class="edge-thickness-normal edge-pattern-solid transition" style="stroke-dasharray: 0 0 715.0179443359375 0; stroke-dashoffset: 0;fill:none;;;fill:none" data-edge="true" data-et="edge" data-id="edge14" data-points="W3sieCI6NTc3LjM0MTE0NTgzMzMzMzMsInkiOjgxMC4zNzV9LHsieCI6NTc3LjM0MTE0NTgzMzMzMzMsInkiOjc1Ny41fSx7IngiOjY5My40NzM5NTgzMzMzMzM0LCJ5Ijo3NTcuNX0seyJ4Ijo2OTMuNDczOTU4MzMzMzMzNCwieSI6NzI2LjI1fSx7IngiOjY5My40NzM5NTgzMzMzMzM0LCJ5Ijo1MTEuMjV9LHsieCI6NjkzLjQ3Mzk1ODMzMzMzMzQsInkiOjQzNy41fSx7IngiOjQ5MS4zMDcyOTE2NjY2NjY2MywieSI6NDM3LjV9LHsieCI6NDkxLjMwNzI5MTY2NjY2NjYzLCJ5IjozOTcuNX1d" data-look="neo" marker-end="url(#d-630078150135267f_stateDiagram-barbEnd-margin)"></path></g><g class="edgeLabels"><g class="edgeLabel" transform="translate(188.63802083333337, 113)"><g class="label" data-id="edge0" transform="translate(-59.734375, -22.5)"><foreignObject width="119.46875" height="45"><div xmlns="http://www.w3.org/1999/xhtml" class="labelBkg" style="display: table-cell; white-space: nowrap; line-height: 1.5; max-width: 200px; text-align: center;"><span class="edgeLabel"><p>a coordinate pair<br>in passes.json</p></span></div></foreignObject></g></g><g class="edgeLabel" transform="translate(82.15364583333331, 296.5)"><g class="label" data-id="edge1" transform="translate(-69.8203125, -22.5)"><foreignObject width="139.640625" height="45"><div xmlns="http://www.w3.org/1999/xhtml" class="labelBkg" style="display: table-cell; white-space: nowrap; line-height: 1.5; max-width: 200px; text-align: center;"><span class="edgeLabel"><p>the pass point is off<br>(DEM &gt;</p></span></div></foreignObject></g></g><g class="edgeLabel" transform="translate(266.2239583333333, 296.5)"><g class="label" data-id="edge2" transform="translate(-94.25, -22.5)"><foreignObject width="188.5" height="45"><div xmlns="http://www.w3.org/1999/xhtml" class="labelBkg" style="display: table-cell; white-space: nowrap; line-height: 1.5; max-width: 200px; text-align: center;"><span class="edgeLabel"><p>data:locate --apply,<br>or a hand-fixed coordinate</p></span></div></foreignObject></g></g><g class="edgeLabel" transform="translate(471.5989583333333, 296.5)"><g class="label" data-id="edge3" transform="translate(-91.125, -11.25)"><foreignObject width="182.25" height="22.5"><div xmlns="http://www.w3.org/1999/xhtml" class="labelBkg" style="display: table-cell; white-space: nowrap; line-height: 1.5; max-width: 200px; text-align: center;"><span class="edgeLabel"><p>the pass point checks out</p></span></div></foreignObject></g></g><g class="edgeLabel" transform="translate(272.25, 511.25)"><g class="label" data-id="edge4" transform="translate(-100, -33.75)"><foreignObject width="200" height="67.5"><div xmlns="http://www.w3.org/1999/xhtml" class="labelBkg" style="display: table; white-space: break-spaces; line-height: 1.5; max-width: 200px; text-align: center; width: 200px;"><span class="edgeLabel"><p>ORS answers<br>(OSRM when its quota is gone)</p></span></div></foreignObject></g></g><g class="edgeLabel" transform="translate(231.5078125, 950)"><g class="label" data-id="edge5" transform="translate(-96.5078125, -22.5)"><foreignObject width="193.015625" height="45"><div xmlns="http://www.w3.org/1999/xhtml" class="labelBkg" style="display: table-cell; white-space: nowrap; line-height: 1.5; max-width: 200px; text-align: center;"><span class="edgeLabel"><p>the gate refuses<br>length · start · end · summit</p></span></div></foreignObject></g></g><g class="edgeLabel" transform="translate(347.890625, 726.25)"><g class="label" data-id="edge6" transform="translate(-59.1328125, -11.25)"><foreignObject width="118.265625" height="22.5"><div xmlns="http://www.w3.org/1999/xhtml" class="labelBkg" style="display: table-cell; white-space: nowrap; line-height: 1.5; max-width: 200px; text-align: center;"><span class="edgeLabel"><p>the gate accepts</p></span></div></foreignObject></g></g><g class="edgeLabel" transform="translate(112, 842.5)"><g class="label" data-id="edge7" transform="translate(-100, -45)"><foreignObject width="200" height="90"><div xmlns="http://www.w3.org/1999/xhtml" class="labelBkg" style="display: table; white-space: break-spaces; line-height: 1.5; max-width: 200px; text-align: center; width: 200px;"><span class="edgeLabel"><p>inputs changed, a limit moved,<br>a check was set, or --retry-rejected</p></span></div></foreignObject></g></g><g class="edgeLabel" transform="translate(297.4609375, 1319.5)"><g class="label" data-id="edge8" transform="translate(-72.4609375, -22.5)"><foreignObject width="144.921875" height="45"><div xmlns="http://www.w3.org/1999/xhtml" class="labelBkg" style="display: table-cell; white-space: nowrap; line-height: 1.5; max-width: 200px; text-align: center;"><span class="edgeLabel"><p>stays out of the map<br>and costs no profile</p></span></div></foreignObject></g></g><g class="edgeLabel" transform="translate(547.9114583333333, 950)"><g class="label" data-id="edge9" transform="translate(-64.5703125, -22.5)"><foreignObject width="129.140625" height="45"><div xmlns="http://www.w3.org/1999/xhtml" class="labelBkg" style="display: table-cell; white-space: nowrap; line-height: 1.5; max-width: 200px; text-align: center;"><span class="edgeLabel"><p>~100 Open-Meteo<br>elevation calls</p></span></div></foreignObject></g></g><g class="edgeLabel" transform="translate(438.3411458333333, 1124.75)"><g class="label" data-id="edge10" transform="translate(-100, -33.75)"><foreignObject width="200" height="67.5"><div xmlns="http://www.w3.org/1999/xhtml" class="labelBkg" style="display: table; white-space: break-spaces; line-height: 1.5; max-width: 200px; text-align: center; width: 200px;"><span class="edgeLabel"><p>the profile checks fail<br>(top height, peak position, gain)</p></span></div></foreignObject></g></g><g class="edgeLabel" transform="translate(658.3411458333334, 1124.75)"><g class="label" data-id="edge11" transform="translate(-100, -22.5)"><foreignObject width="200" height="45"><div xmlns="http://www.w3.org/1999/xhtml" class="labelBkg" style="display: table; white-space: break-spaces; line-height: 1.5; max-width: 200px; text-align: center; width: 200px;"><span class="edgeLabel"><p>map assets · detail assets · prerender</p></span></div></foreignObject></g></g><g class="edgeLabel" transform="translate(481.9739583333333, 630)"><g class="label" data-id="edge12" transform="translate(-100, -45)"><foreignObject width="200" height="90"><div xmlns="http://www.w3.org/1999/xhtml" class="labelBkg" style="display: table; white-space: break-spaces; line-height: 1.5; max-width: 200px; text-align: center; width: 200px;"><span class="edgeLabel"><p>the marker or the start moved<br>(meta.inputs no longer matches)</p></span></div></foreignObject></g></g><g class="edgeLabel" transform="translate(803.6848958333334, 842.5)"><g class="label" data-id="edge13" transform="translate(-19.1171875, -11.25)"><foreignObject width="38.234375" height="22.5"><div xmlns="http://www.w3.org/1999/xhtml" class="labelBkg" style="display: table-cell; white-space: nowrap; line-height: 1.5; max-width: 200px; text-align: center;"><span class="edgeLabel"><p>same</p></span></div></foreignObject></g></g><g class="edgeLabel" transform="translate(693.0208333333334, 630)"><g class="label" data-id="edge14" transform="translate(-91.046875, -22.5)"><foreignObject width="182.09375" height="45"><div xmlns="http://www.w3.org/1999/xhtml" class="labelBkg" style="display: table-cell; white-space: nowrap; line-height: 1.5; max-width: 200px; text-align: center;"><span class="edgeLabel"><p>it is an OSRM route<br>and --upgrade-osrm runs</p></span></div></foreignObject></g></g></g><g class="nodes"><g class="node default" id="d-630078150135267f-state-root_start-0" data-look="neo" transform="translate(188.90364583333337, 43.5)"><circle class="state-start" r="7" width="14" height="14"></circle></g><g class="node  statediagram-state" id="d-630078150135267f-state-Curated-3" data-look="neo" transform="translate(188.90364583333337, 194.75)"><rect class="basic label-container" style="" rx="5" ry="5" x="-68" y="-19.25" width="136" height="38.5"></rect><g class="label" style="" transform="translate(-60, -11.25)"><rect></rect><foreignObject width="120" height="22.5"><div xmlns="http://www.w3.org/1999/xhtml" style="display: table; white-space: nowrap; line-height: 1.5; max-width: 120px; text-align: center; width: 120px;"><span class="nodeLabel markdown-node-label"><p>Curated</p></span></div></foreignObject></g></g><g class="node  statediagram-state" id="d-630078150135267f-state-SummitBlocked-2" data-look="neo" transform="translate(174.4036458333333, 378.25)"><rect class="basic label-container" style="" rx="5" ry="5" x="-68" y="-19.25" width="136" height="38.5"></rect><g class="label" style="" transform="translate(-60, -11.25)"><rect></rect><foreignObject width="120" height="22.5"><div xmlns="http://www.w3.org/1999/xhtml" style="display: table; white-space: nowrap; line-height: 1.5; max-width: 120px; text-align: center; width: 120px;"><span class="nodeLabel markdown-node-label"><p>SummitBlocked</p></span></div></foreignObject></g></g><g class="node  statediagram-state" id="d-630078150135267f-state-;-2" data-look="neo" transform="translate(300.90364583333337, 31.25)"><rect class="basic label-container" style="" rx="5" ry="5" x="-68" y="-19.25" width="136" height="38.5"></rect><g class="label" style="" transform="translate(-60, -11.25)"><rect></rect><foreignObject width="120" height="22.5"><div xmlns="http://www.w3.org/1999/xhtml" style="display: table; white-space: nowrap; line-height: 1.5; max-width: 120px; text-align: center; width: 120px;"><span class="nodeLabel markdown-node-label"><p>;</p></span></div></foreignObject></g></g><g class="node  statediagram-state" id="d-630078150135267f-state-80-2" data-look="neo" transform="translate(476.90364583333337, 31.25)"><rect class="basic label-container" style="" rx="5" ry="5" x="-68" y="-19.25" width="136" height="38.5"></rect><g class="label" style="" transform="translate(-60, -11.25)"><rect></rect><foreignObject width="120" height="22.5"><div xmlns="http://www.w3.org/1999/xhtml" style="display: table; white-space: nowrap; line-height: 1.5; max-width: 120px; text-align: center; width: 120px;"><span class="nodeLabel markdown-node-label"><p>80</p></span></div></foreignObject></g></g><g class="node  statediagram-state" id="d-630078150135267f-state-m-2" data-look="neo" transform="translate(652.9036458333334, 31.25)"><rect class="basic label-container" style="" rx="5" ry="5" x="-68" y="-19.25" width="136" height="38.5"></rect><g class="label" style="" transform="translate(-60, -11.25)"><rect></rect><foreignObject width="120" height="22.5"><div xmlns="http://www.w3.org/1999/xhtml" style="display: table; white-space: nowrap; line-height: 1.5; max-width: 120px; text-align: center; width: 120px;"><span class="nodeLabel markdown-node-label"><p>m</p></span></div></foreignObject></g></g><g class="node  statediagram-state" id="d-630078150135267f-state-or-2" data-look="neo" transform="translate(828.9036458333334, 31.25)"><rect class="basic label-container" style="" rx="5" ry="5" x="-68" y="-19.25" width="136" height="38.5"></rect><g class="label" style="" transform="translate(-60, -11.25)"><rect></rect><foreignObject width="120" height="22.5"><div xmlns="http://www.w3.org/1999/xhtml" style="display: table; white-space: nowrap; line-height: 1.5; max-width: 120px; text-align: center; width: 120px;"><span class="nodeLabel markdown-node-label"><p>or</p></span></div></foreignObject></g></g><g class="node  statediagram-state" id="d-630078150135267f-state-&amp;gt;-2" data-look="neo" transform="translate(1004.9036458333334, 31.25)"><rect class="basic label-container" style="" rx="5" ry="5" x="-68" y="-19.25" width="136" height="38.5"></rect><g class="label" style="" transform="translate(-60, -11.25)"><rect></rect><foreignObject width="120" height="22.5"><div xmlns="http://www.w3.org/1999/xhtml" style="display: table; white-space: nowrap; line-height: 1.5; max-width: 120px; text-align: center; width: 120px;"><span class="nodeLabel markdown-node-label"><p>&gt;</p></span></div></foreignObject></g></g><g class="node  statediagram-state" id="d-630078150135267f-state-100-2" data-look="neo" transform="translate(1180.9036458333335, 31.25)"><rect class="basic label-container" style="" rx="5" ry="5" x="-68" y="-19.25" width="136" height="38.5"></rect><g class="label" style="" transform="translate(-60, -11.25)"><rect></rect><foreignObject width="120" height="22.5"><div xmlns="http://www.w3.org/1999/xhtml" style="display: table; white-space: nowrap; line-height: 1.5; max-width: 120px; text-align: center; width: 120px;"><span class="nodeLabel markdown-node-label"><p>100</p></span></div></foreignObject></g></g><g class="node  statediagram-state" id="d-630078150135267f-state-from-2" data-look="neo" transform="translate(1356.9036458333335, 31.25)"><rect class="basic label-container" style="" rx="5" ry="5" x="-68" y="-19.25" width="136" height="38.5"></rect><g class="label" style="" transform="translate(-60, -11.25)"><rect></rect><foreignObject width="120" height="22.5"><div xmlns="http://www.w3.org/1999/xhtml" style="display: table; white-space: nowrap; line-height: 1.5; max-width: 120px; text-align: center; width: 120px;"><span class="nodeLabel markdown-node-label"><p>from</p></span></div></foreignObject></g></g><g class="node  statediagram-state" id="d-630078150135267f-state-a-2" data-look="neo" transform="translate(1532.9036458333335, 31.25)"><rect class="basic label-container" style="" rx="5" ry="5" x="-68" y="-19.25" width="136" height="38.5"></rect><g class="label" style="" transform="translate(-60, -11.25)"><rect></rect><foreignObject width="120" height="22.5"><div xmlns="http://www.w3.org/1999/xhtml" style="display: table; white-space: nowrap; line-height: 1.5; max-width: 120px; text-align: center; width: 120px;"><span class="nodeLabel markdown-node-label"><p>a</p></span></div></foreignObject></g></g><g class="node  statediagram-state" id="d-630078150135267f-state-road)-2" data-look="neo" transform="translate(1708.9036458333335, 31.25)"><rect class="basic label-container" style="" rx="5" ry="5" x="-68" y="-19.25" width="136" height="38.5"></rect><g class="label" style="" transform="translate(-60, -11.25)"><rect></rect><foreignObject width="120" height="22.5"><div xmlns="http://www.w3.org/1999/xhtml" style="display: table; white-space: nowrap; line-height: 1.5; max-width: 120px; text-align: center; width: 120px;"><span class="nodeLabel markdown-node-label"><p>road)</p></span></div></foreignObject></g></g><g class="node  statediagram-state" id="d-630078150135267f-state-Pending-14" data-look="neo" transform="translate(471.9739583333333, 378.25)"><rect class="basic label-container" style="" rx="5" ry="5" x="-68" y="-19.25" width="136" height="38.5"></rect><g class="label" style="" transform="translate(-60, -11.25)"><rect></rect><foreignObject width="120" height="22.5"><div xmlns="http://www.w3.org/1999/xhtml" style="display: table; white-space: nowrap; line-height: 1.5; max-width: 120px; text-align: center; width: 120px;"><span class="nodeLabel markdown-node-label"><p>Pending</p></span></div></foreignObject></g></g><g class="node  statediagram-state" id="d-630078150135267f-state-Routed-6" data-look="neo" transform="translate(272.25, 638.5833333333334)"><rect class="basic label-container" style="" rx="5" ry="5" x="-68" y="-19.25" width="136" height="38.5"></rect><g class="label" style="" transform="translate(-60, -11.25)"><rect></rect><foreignObject width="120" height="22.5"><div xmlns="http://www.w3.org/1999/xhtml" style="display: table; white-space: nowrap; line-height: 1.5; max-width: 120px; text-align: center; width: 120px;"><span class="nodeLabel markdown-node-label"><p>Routed</p></span></div></foreignObject></g></g><g class="node  statediagram-state" id="d-630078150135267f-state-Rejected-10" data-look="neo" transform="translate(297.5, 1237.75)"><rect class="basic label-container" style="" rx="5" ry="5" x="-68" y="-19.25" width="136" height="38.5"></rect><g class="label" style="" transform="translate(-60, -11.25)"><rect></rect><foreignObject width="120" height="22.5"><div xmlns="http://www.w3.org/1999/xhtml" style="display: table; white-space: nowrap; line-height: 1.5; max-width: 120px; text-align: center; width: 120px;"><span class="nodeLabel markdown-node-label"><p>Rejected</p></span></div></foreignObject></g></g><g class="node  statediagram-state" id="d-630078150135267f-state-Stored-14" data-look="neo" transform="translate(548.3411458333333, 829.625)"><rect class="basic label-container" style="" rx="5" ry="5" x="-68" y="-19.25" width="136" height="38.5"></rect><g class="label" style="" transform="translate(-60, -11.25)"><rect></rect><foreignObject width="120" height="22.5"><div xmlns="http://www.w3.org/1999/xhtml" style="display: table; white-space: nowrap; line-height: 1.5; max-width: 120px; text-align: center; width: 120px;"><span class="nodeLabel markdown-node-label"><p>Stored</p></span></div></foreignObject></g></g><g class="node default" id="d-630078150135267f-state-root_end-8" data-look="neo" transform="translate(297.5, 1389)"><g class="outer-path"><path d="M7 0 C7 0.40517908122283747, 6.964012880168563 0.816513743121899, 6.893654271085456 1.2155372436685123 C6.823295662002349 1.6145607442151257, 6.716427752933756 2.013397210557766, 6.5778483455013586 2.394141003279681 C6.439268938068961 2.7748847960015954, 6.26476736710249 3.149104622578984, 6.062177826491071 3.4999999999999996 C5.859588285879653 3.8508953774210153, 5.622755194947063 4.189128084166967, 5.362311101832846 4.499513267805774 C5.10186700871863 4.809898451444582, 4.809898451444583 5.10186700871863, 4.499513267805775 5.362311101832846 C4.189128084166968 5.622755194947063, 3.8508953774210166 5.859588285879652, 3.500000000000001 6.06217782649107 C3.149104622578985 6.264767367102489, 2.7748847960015963 6.439268938068961, 2.3941410032796817 6.5778483455013586 C2.013397210557767 6.716427752933756, 1.6145607442151264 6.823295662002349, 1.2155372436685128 6.893654271085456 C0.8165137431218992 6.964012880168563, 0.4051790812228379 7, 4.286263797015736e-16 7 C-0.405179081222837 7, -0.8165137431218985 6.964012880168563, -1.2155372436685121 6.893654271085456 C-1.6145607442151257 6.823295662002349, -2.0133972105577667 6.716427752933756, -2.394141003279681 6.5778483455013586 C-2.774884796001595 6.439268938068961, -3.149104622578983 6.26476736710249, -3.4999999999999982 6.062177826491071 C-3.8508953774210135 5.859588285879653, -4.189128084166966 5.6227551949470636, -4.499513267805773 5.362311101832848 C-4.809898451444581 5.101867008718632, -5.101867008718628 4.809898451444586, -5.3623111018328435 4.499513267805779 C-5.622755194947059 4.189128084166971, -5.859588285879649 3.8508953774210206, -6.062177826491068 3.5000000000000053 C-6.264767367102486 3.14910462257899, -6.439268938068958 2.774884796001602, -6.577848345501356 2.394141003279688 C-6.716427752933754 2.0133972105577738, -6.823295662002347 1.614560744215134, -6.893654271085454 1.215537243668521 C-6.9640128801685615 0.816513743121908, -6.999999999999999 0.4051790812228472, -7 1.0183126166254463e-14 C-7.000000000000001 -0.40517908122282686, -6.964012880168565 -0.8165137431218878, -6.893654271085459 -1.215537243668501 C-6.823295662002352 -1.6145607442151142, -6.716427752933759 -2.0133972105577542, -6.577848345501363 -2.394141003279669 C-6.439268938068967 -2.7748847960015834, -6.264767367102496 -3.149104622578972, -6.062177826491078 -3.4999999999999876 C-5.859588285879661 -3.8508953774210033, -5.6227551949470715 -4.1891280841669545, -5.362311101832856 -4.499513267805763 C-5.10186700871864 -4.809898451444571, -4.809898451444594 -5.10186700871862, -4.499513267805787 -5.362311101832836 C-4.189128084166979 -5.622755194947053, -3.850895377421028 -5.859588285879643, -3.5000000000000133 -6.062177826491062 C-3.1491046225789985 -6.264767367102482, -2.774884796001611 -6.439268938068954, -2.3941410032796973 -6.577848345501353 C-2.0133972105577835 -6.716427752933752, -1.6145607442151435 -6.823295662002345, -1.2155372436685306 -6.893654271085453 C-0.8165137431219176 -6.9640128801685615, -0.40517908122285695 -6.999999999999999, -1.9937625952807352e-14 -7 C0.4051790812228171 -7.000000000000001, 0.8165137431218781 -6.964012880168565, 1.2155372436684913 -6.89365427108546 C1.6145607442151044 -6.823295662002354, 2.013397210557745 -6.716427752933763, 2.3941410032796595 -6.5778483455013665 C2.774884796001574 -6.43926893806897, 3.149104622578963 -6.2647673671025, 3.499999999999979 -6.062177826491083 C3.8508953774209953 -5.859588285879665, 4.189128084166947 -5.622755194947077, 4.499513267805756 -5.362311101832862 C4.809898451444564 -5.1018670087186475, 5.101867008718613 -4.809898451444602, 5.362311101832829 -4.499513267805796 C5.622755194947046 -4.189128084166989, 5.859588285879637 -3.8508953774210393, 6.062177826491056 -3.500000000000025 C6.2647673671024755 -3.1491046225790105, 6.439268938068949 -2.774884796001623, 6.577848345501348 -2.3941410032797092 C6.716427752933747 -2.0133972105577955, 6.823295662002342 -1.6145607442151562, 6.893654271085451 -1.2155372436685434 C6.96401288016856 -0.8165137431219307, 6.982275711847575 -0.2025895406114567, 7 -3.2800750208310675e-14 C7.017724288152425 0.2025895406113911, 7.017724288152424 -0.2025895406114242, 7 0" stroke="none" stroke-width="0" fill="var(--diagram-node)" style=""></path><path d="M7 0 C7 0.40517908122283747, 6.964012880168563 0.816513743121899, 6.893654271085456 1.2155372436685123 C6.823295662002349 1.6145607442151257, 6.716427752933756 2.013397210557766, 6.5778483455013586 2.394141003279681 C6.439268938068961 2.7748847960015954, 6.26476736710249 3.149104622578984, 6.062177826491071 3.4999999999999996 C5.859588285879653 3.8508953774210153, 5.622755194947063 4.189128084166967, 5.362311101832846 4.499513267805774 C5.10186700871863 4.809898451444582, 4.809898451444583 5.10186700871863, 4.499513267805775 5.362311101832846 C4.189128084166968 5.622755194947063, 3.8508953774210166 5.859588285879652, 3.500000000000001 6.06217782649107 C3.149104622578985 6.264767367102489, 2.7748847960015963 6.439268938068961, 2.3941410032796817 6.5778483455013586 C2.013397210557767 6.716427752933756, 1.6145607442151264 6.823295662002349, 1.2155372436685128 6.893654271085456 C0.8165137431218992 6.964012880168563, 0.4051790812228379 7, 4.286263797015736e-16 7 C-0.405179081222837 7, -0.8165137431218985 6.964012880168563, -1.2155372436685121 6.893654271085456 C-1.6145607442151257 6.823295662002349, -2.0133972105577667 6.716427752933756, -2.394141003279681 6.5778483455013586 C-2.774884796001595 6.439268938068961, -3.149104622578983 6.26476736710249, -3.4999999999999982 6.062177826491071 C-3.8508953774210135 5.859588285879653, -4.189128084166966 5.6227551949470636, -4.499513267805773 5.362311101832848 C-4.809898451444581 5.101867008718632, -5.101867008718628 4.809898451444586, -5.3623111018328435 4.499513267805779 C-5.622755194947059 4.189128084166971, -5.859588285879649 3.8508953774210206, -6.062177826491068 3.5000000000000053 C-6.264767367102486 3.14910462257899, -6.439268938068958 2.774884796001602, -6.577848345501356 2.394141003279688 C-6.716427752933754 2.0133972105577738, -6.823295662002347 1.614560744215134, -6.893654271085454 1.215537243668521 C-6.9640128801685615 0.816513743121908, -6.999999999999999 0.4051790812228472, -7 1.0183126166254463e-14 C-7.000000000000001 -0.40517908122282686, -6.964012880168565 -0.8165137431218878, -6.893654271085459 -1.215537243668501 C-6.823295662002352 -1.6145607442151142, -6.716427752933759 -2.0133972105577542, -6.577848345501363 -2.394141003279669 C-6.439268938068967 -2.7748847960015834, -6.264767367102496 -3.149104622578972, -6.062177826491078 -3.4999999999999876 C-5.859588285879661 -3.8508953774210033, -5.6227551949470715 -4.1891280841669545, -5.362311101832856 -4.499513267805763 C-5.10186700871864 -4.809898451444571, -4.809898451444594 -5.10186700871862, -4.499513267805787 -5.362311101832836 C-4.189128084166979 -5.622755194947053, -3.850895377421028 -5.859588285879643, -3.5000000000000133 -6.062177826491062 C-3.1491046225789985 -6.264767367102482, -2.774884796001611 -6.439268938068954, -2.3941410032796973 -6.577848345501353 C-2.0133972105577835 -6.716427752933752, -1.6145607442151435 -6.823295662002345, -1.2155372436685306 -6.893654271085453 C-0.8165137431219176 -6.9640128801685615, -0.40517908122285695 -6.999999999999999, -1.9937625952807352e-14 -7 C0.4051790812228171 -7.000000000000001, 0.8165137431218781 -6.964012880168565, 1.2155372436684913 -6.89365427108546 C1.6145607442151044 -6.823295662002354, 2.013397210557745 -6.716427752933763, 2.3941410032796595 -6.5778483455013665 C2.774884796001574 -6.43926893806897, 3.149104622578963 -6.2647673671025, 3.499999999999979 -6.062177826491083 C3.8508953774209953 -5.859588285879665, 4.189128084166947 -5.622755194947077, 4.499513267805756 -5.362311101832862 C4.809898451444564 -5.1018670087186475, 5.101867008718613 -4.809898451444602, 5.362311101832829 -4.499513267805796 C5.622755194947046 -4.189128084166989, 5.859588285879637 -3.8508953774210393, 6.062177826491056 -3.500000000000025 C6.2647673671024755 -3.1491046225790105, 6.439268938068949 -2.774884796001623, 6.577848345501348 -2.3941410032797092 C6.716427752933747 -2.0133972105577955, 6.823295662002342 -1.6145607442151562, 6.893654271085451 -1.2155372436685434 C6.96401288016856 -0.8165137431219307, 6.982275711847575 -0.2025895406114567, 7 -3.2800750208310675e-14 C7.017724288152425 0.2025895406113911, 7.017724288152424 -0.2025895406114242, 7 0" stroke="var(--diagram-line)" stroke-width="2" fill="none" stroke-dasharray="0 0" style=""></path><g><path d="M2.5 0 C2.5 0.14470681472244193, 2.487147457203058 0.29161205111496386, 2.46201938253052 0.4341204441673258 C2.436891307857982 0.5766288372196877, 2.3987241974763416 0.7190704323420595, 2.3492315519647713 0.8550503583141718 C2.299738906453201 0.991030284286284, 2.2374169168223177 1.124680222349637, 2.165063509461097 1.2499999999999998 C2.092710102099876 1.3753197776503625, 2.0081268553382365 1.496117172916774, 1.915111107797445 1.6069690242163481 C1.8220953602566536 1.7178208755159223, 1.7178208755159226 1.8220953602566536, 1.6069690242163484 1.915111107797445 C1.4961171729167742 2.0081268553382365, 1.375319777650363 2.0927101020998755, 1.2500000000000002 2.1650635094610964 C1.1246802223496375 2.2374169168223172, 0.9910302842862845 2.2997389064532, 0.8550503583141721 2.349231551964771 C0.7190704323420597 2.3987241974763416, 0.576628837219688 2.436891307857982, 0.43412044416732604 2.46201938253052 C0.291612051114964 2.487147457203058, 0.14470681472244212 2.5, 1.5308084989341916e-16 2.5 C-0.1447068147224418 2.5, -0.2916120511149638 2.487147457203058, -0.43412044416732576 2.46201938253052 C-0.5766288372196877 2.436891307857982, -0.7190704323420595 2.3987241974763416, -0.8550503583141718 2.3492315519647713 C-0.991030284286284 2.299738906453201, -1.124680222349637 2.2374169168223177, -1.2499999999999996 2.165063509461097 C-1.375319777650362 2.092710102099876, -1.4961171729167733 2.008126855338237, -1.6069690242163475 1.9151111077974459 C-1.7178208755159217 1.8220953602566548, -1.822095360256653 1.7178208755159234, -1.9151111077974443 1.6069690242163495 C-2.0081268553382357 1.4961171729167755, -2.0927101020998746 1.3753197776503645, -2.1650635094610955 1.250000000000002 C-2.2374169168223164 1.1246802223496395, -2.2997389064531992 0.9910302842862865, -2.34923155196477 0.8550503583141743 C-2.3987241974763407 0.7190704323420621, -2.436891307857981 0.5766288372196907, -2.4620193825305194 0.434120444167329 C-2.487147457203058 0.29161205111496724, -2.5 0.14470681472244545, -2.5 3.636830773662308e-15 C-2.5 -0.14470681472243818, -2.4871474572030587 -0.2916120511149599, -2.4620193825305208 -0.4341204441673218 C-2.436891307857983 -0.5766288372196837, -2.398724197476343 -0.7190704323420553, -2.3492315519647726 -0.8550503583141675 C-2.2997389064532023 -0.9910302842862798, -2.23741691682232 -1.1246802223496328, -2.165063509461099 -1.2499999999999956 C-2.092710102099878 -1.3753197776503583, -2.00812685533824 -1.4961171729167695, -1.9151111077974488 -1.606969024216344 C-1.8220953602566576 -1.7178208755159183, -1.7178208755159263 -1.82209536025665, -1.6069690242163523 -1.9151111077974416 C-1.4961171729167784 -2.0081268553382334, -1.3753197776503672 -2.0927101020998724, -1.2500000000000047 -2.1650635094610937 C-1.1246802223496422 -2.237416916822315, -0.9910302842862897 -2.299738906453198, -0.8550503583141776 -2.3492315519647686 C-0.7190704323420656 -2.3987241974763394, -0.5766288372196942 -2.4368913078579806, -0.43412044416733236 -2.462019382530519 C-0.29161205111497057 -2.4871474572030574, -0.1447068147224489 -2.4999999999999996, -7.120580697431198e-15 -2.5 C0.14470681472243463 -2.5000000000000004, 0.29161205111495647 -2.487147457203059, 0.4341204441673183 -2.4620193825305217 C0.5766288372196802 -2.436891307857984, 0.7190704323420518 -2.3987241974763442, 0.8550503583141642 -2.349231551964774 C0.9910302842862766 -2.2997389064532037, 1.1246802223496295 -2.2374169168223212, 1.2499999999999925 -2.165063509461101 C1.3753197776503554 -2.0927101020998804, 1.4961171729167668 -2.008126855338242, 1.6069690242163412 -1.915111107797451 C1.7178208755159157 -1.82209536025666, 1.8220953602566472 -1.7178208755159294, 1.915111107797439 -1.6069690242163557 C2.0081268553382308 -1.496117172916782, 2.09271010209987 -1.3753197776503712, 2.1650635094610915 -1.2500000000000089 C2.237416916822313 -1.1246802223496466, 2.299738906453196 -0.9910302842862939, 2.3492315519647673 -0.855050358314182 C2.3987241974763385 -0.71907043234207, 2.4368913078579792 -0.5766288372196986, 2.462019382530518 -0.4341204441673369 C2.487147457203057 -0.29161205111497523, 2.4936698970884197 -0.07235340736123454, 2.5 -1.1714553645825241e-14 C2.5063301029115803 0.07235340736121111, 2.50633010291158 -0.07235340736122292, 2.5 0" stroke="none" stroke-width="0" fill="var(--diagram-node-border)" style=""></path><path d="M2.5 0 C2.5 0.14470681472244193, 2.487147457203058 0.29161205111496386, 2.46201938253052 0.4341204441673258 C2.436891307857982 0.5766288372196877, 2.3987241974763416 0.7190704323420595, 2.3492315519647713 0.8550503583141718 C2.299738906453201 0.991030284286284, 2.2374169168223177 1.124680222349637, 2.165063509461097 1.2499999999999998 C2.092710102099876 1.3753197776503625, 2.0081268553382365 1.496117172916774, 1.915111107797445 1.6069690242163481 C1.8220953602566536 1.7178208755159223, 1.7178208755159226 1.8220953602566536, 1.6069690242163484 1.915111107797445 C1.4961171729167742 2.0081268553382365, 1.375319777650363 2.0927101020998755, 1.2500000000000002 2.1650635094610964 C1.1246802223496375 2.2374169168223172, 0.9910302842862845 2.2997389064532, 0.8550503583141721 2.349231551964771 C0.7190704323420597 2.3987241974763416, 0.576628837219688 2.436891307857982, 0.43412044416732604 2.46201938253052 C0.291612051114964 2.487147457203058, 0.14470681472244212 2.5, 1.5308084989341916e-16 2.5 C-0.1447068147224418 2.5, -0.2916120511149638 2.487147457203058, -0.43412044416732576 2.46201938253052 C-0.5766288372196877 2.436891307857982, -0.7190704323420595 2.3987241974763416, -0.8550503583141718 2.3492315519647713 C-0.991030284286284 2.299738906453201, -1.124680222349637 2.2374169168223177, -1.2499999999999996 2.165063509461097 C-1.375319777650362 2.092710102099876, -1.4961171729167733 2.008126855338237, -1.6069690242163475 1.9151111077974459 C-1.7178208755159217 1.8220953602566548, -1.822095360256653 1.7178208755159234, -1.9151111077974443 1.6069690242163495 C-2.0081268553382357 1.4961171729167755, -2.0927101020998746 1.3753197776503645, -2.1650635094610955 1.250000000000002 C-2.2374169168223164 1.1246802223496395, -2.2997389064531992 0.9910302842862865, -2.34923155196477 0.8550503583141743 C-2.3987241974763407 0.7190704323420621, -2.436891307857981 0.5766288372196907, -2.4620193825305194 0.434120444167329 C-2.487147457203058 0.29161205111496724, -2.5 0.14470681472244545, -2.5 3.636830773662308e-15 C-2.5 -0.14470681472243818, -2.4871474572030587 -0.2916120511149599, -2.4620193825305208 -0.4341204441673218 C-2.436891307857983 -0.5766288372196837, -2.398724197476343 -0.7190704323420553, -2.3492315519647726 -0.8550503583141675 C-2.2997389064532023 -0.9910302842862798, -2.23741691682232 -1.1246802223496328, -2.165063509461099 -1.2499999999999956 C-2.092710102099878 -1.3753197776503583, -2.00812685533824 -1.4961171729167695, -1.9151111077974488 -1.606969024216344 C-1.8220953602566576 -1.7178208755159183, -1.7178208755159263 -1.82209536025665, -1.6069690242163523 -1.9151111077974416 C-1.4961171729167784 -2.0081268553382334, -1.3753197776503672 -2.0927101020998724, -1.2500000000000047 -2.1650635094610937 C-1.1246802223496422 -2.237416916822315, -0.9910302842862897 -2.299738906453198, -0.8550503583141776 -2.3492315519647686 C-0.7190704323420656 -2.3987241974763394, -0.5766288372196942 -2.4368913078579806, -0.43412044416733236 -2.462019382530519 C-0.29161205111497057 -2.4871474572030574, -0.1447068147224489 -2.4999999999999996, -7.120580697431198e-15 -2.5 C0.14470681472243463 -2.5000000000000004, 0.29161205111495647 -2.487147457203059, 0.4341204441673183 -2.4620193825305217 C0.5766288372196802 -2.436891307857984, 0.7190704323420518 -2.3987241974763442, 0.8550503583141642 -2.349231551964774 C0.9910302842862766 -2.2997389064532037, 1.1246802223496295 -2.2374169168223212, 1.2499999999999925 -2.165063509461101 C1.3753197776503554 -2.0927101020998804, 1.4961171729167668 -2.008126855338242, 1.6069690242163412 -1.915111107797451 C1.7178208755159157 -1.82209536025666, 1.8220953602566472 -1.7178208755159294, 1.915111107797439 -1.6069690242163557 C2.0081268553382308 -1.496117172916782, 2.09271010209987 -1.3753197776503712, 2.1650635094610915 -1.2500000000000089 C2.237416916822313 -1.1246802223496466, 2.299738906453196 -0.9910302842862939, 2.3492315519647673 -0.855050358314182 C2.3987241974763385 -0.71907043234207, 2.4368913078579792 -0.5766288372196986, 2.462019382530518 -0.4341204441673369 C2.487147457203057 -0.29161205111497523, 2.4936698970884197 -0.07235340736123454, 2.5 -1.1714553645825241e-14 C2.5063301029115803 0.07235340736121111, 2.50633010291158 -0.07235340736122292, 2.5 0" stroke="var(--diagram-node-border)" stroke-width="2" fill="none" stroke-dasharray="0 0" style=""></path></g></g></g><g class="node  statediagram-state" id="d-630078150135267f-state-Profiled-11" data-look="neo" transform="translate(548.3411458333333, 1031.75)"><rect class="basic label-container" style="" rx="5" ry="5" x="-68" y="-19.25" width="136" height="38.5"></rect><g class="label" style="" transform="translate(-60, -11.25)"><rect></rect><foreignObject width="120" height="22.5"><div xmlns="http://www.w3.org/1999/xhtml" style="display: table; white-space: nowrap; line-height: 1.5; max-width: 120px; text-align: center; width: 120px;"><span class="nodeLabel markdown-node-label"><p>Profiled</p></span></div></foreignObject></g></g><g class="node  statediagram-state" id="d-630078150135267f-state-Published-13" data-look="neo" transform="translate(718.4713541666666, 1237.75)"><rect class="basic label-container" style="" rx="5" ry="5" x="-68" y="-19.25" width="136" height="38.5"></rect><g class="label" style="" transform="translate(-60, -11.25)"><rect></rect><foreignObject width="120" height="22.5"><div xmlns="http://www.w3.org/1999/xhtml" style="display: table; white-space: nowrap; line-height: 1.5; max-width: 120px; text-align: center; width: 120px;"><span class="nodeLabel markdown-node-label"><p>Published</p></span></div></foreignObject></g></g></g></g></g><defs><filter id="d-630078150135267f-drop-shadow" height="130%" width="130%"><feDropShadow dx="4" dy="4" stdDeviation="0" flood-opacity="0.06" flood-color="#000000"></feDropShadow></filter></defs><defs><filter id="d-630078150135267f-drop-shadow-small" height="150%" width="150%"><feDropShadow dx="2" dy="2" stdDeviation="0" flood-opacity="0.06" flood-color="#000000"></feDropShadow></filter></defs></svg>
